<svg width="220" height="153" viewBox="0 0 220 153" fill="none" xmlns="http://www.w3.org/2000/svg">
<path d="M91.5 32.5C91.5 43.6228 83.8176 52.5 74.5 52.5C65.1824 52.5 57.5 43.6228 57.5 32.5C57.5 21.3772 65.1824 12.5 74.5 12.5C83.8176 12.5 91.5 21.3772 91.5 32.5Z" fill="#F38B50"/>
<path d="M91.5 32.5C91.5 43.6228 83.8176 52.5 74.5 52.5C65.1824 52.5 57.5 43.6228 57.5 32.5C57.5 21.3772 65.1824 12.5 74.5 12.5C83.8176 12.5 91.5 21.3772 91.5 32.5Z" stroke="black"/>
<path d="M91.5 32.5C91.5 43.6228 83.8176 52.5 74.5 52.5C65.1824 52.5 57.5 43.6228 57.5 32.5C57.5 21.3772 65.1824 12.5 74.5 12.5C83.8176 12.5 91.5 21.3772 91.5 32.5Z" stroke="black" stroke-opacity="0.2"/>
<path d="M80.5 106.5C80.5 118.199 72.7976 127.5 63.5 127.5C54.2024 127.5 46.5 118.199 46.5 106.5C46.5 94.8009 54.2024 85.5 63.5 85.5C72.7976 85.5 80.5 94.8009 80.5 106.5Z" fill="#F20000" stroke="black"/>
<path d="M32.7273 25.4688C32.429 24.4318 32.0099 23.5156 31.4702 22.7202C30.9304 21.9105 30.2699 21.2287 29.4886 20.6747C28.7216 20.1065 27.8409 19.6733 26.8466 19.375C25.8665 19.0767 24.7798 18.9276 23.5866 18.9276C21.3565 18.9276 19.3963 19.4815 17.706 20.5895C16.0298 21.6974 14.723 23.3097 13.7855 25.4261C12.848 27.5284 12.3793 30.0994 12.3793 33.1392C12.3793 36.179 12.8409 38.7642 13.7642 40.8949C14.6875 43.0256 15.9943 44.652 17.6847 45.7741C19.375 46.8821 21.3707 47.4361 23.6719 47.4361C25.7599 47.4361 27.5426 47.0668 29.0199 46.3281C30.5114 45.5753 31.6477 44.517 32.429 43.1534C33.2244 41.7898 33.6222 40.1776 33.6222 38.3168L35.4972 38.5938H24.2472V31.6477H42.5071V37.1449C42.5071 40.9801 41.6974 44.2756 40.0781 47.0312C38.4588 49.7727 36.2287 51.8892 33.3878 53.3807C30.5469 54.858 27.294 55.5966 23.6293 55.5966C19.5384 55.5966 15.9446 54.6946 12.848 52.8906C9.75142 51.0724 7.33665 48.4943 5.60369 45.1562C3.88494 41.804 3.02557 37.8267 3.02557 33.2244C3.02557 29.6875 3.53693 26.5341 4.55966 23.7642C5.59659 20.9801 7.04545 18.6222 8.90625 16.6903C10.767 14.7585 12.9332 13.2884 15.4048 12.2798C17.8764 11.2713 20.554 10.767 23.4375 10.767C25.9091 10.767 28.2102 11.1293 30.3409 11.8537C32.4716 12.5639 34.3608 13.5724 36.0085 14.8793C37.6705 16.1861 39.027 17.7415 40.0781 19.5455C41.1293 21.3352 41.804 23.3097 42.1023 25.4688H32.7273ZM145.083 33.1818C145.083 37.9403 144.181 41.9886 142.377 45.3267C140.588 48.6648 138.145 51.2145 135.048 52.9759C131.966 54.723 128.5 55.5966 124.65 55.5966C120.772 55.5966 117.292 54.7159 114.21 52.9545C111.127 51.1932 108.691 48.6435 106.902 45.3054C105.112 41.9673 104.217 37.9261 104.217 33.1818C104.217 28.4233 105.112 24.375 106.902 21.0369C108.691 17.6989 111.127 15.1562 114.21 13.4091C117.292 11.6477 120.772 10.767 124.65 10.767C128.5 10.767 131.966 11.6477 135.048 13.4091C138.145 15.1562 140.588 17.6989 142.377 21.0369C144.181 24.375 145.083 28.4233 145.083 33.1818ZM135.73 33.1818C135.73 30.0994 135.268 27.5 134.345 25.3835C133.436 23.267 132.15 21.6619 130.488 20.5682C128.826 19.4744 126.88 18.9276 124.65 18.9276C122.42 18.9276 120.474 19.4744 118.812 20.5682C117.15 21.6619 115.858 23.267 114.934 25.3835C114.025 27.5 113.571 30.0994 113.571 33.1818C113.571 36.2642 114.025 38.8636 114.934 40.9801C115.858 43.0966 117.15 44.7017 118.812 45.7955C120.474 46.8892 122.42 47.4361 124.65 47.4361C126.88 47.4361 128.826 46.8892 130.488 45.7955C132.15 44.7017 133.436 43.0966 134.345 40.9801C135.268 38.8636 135.73 36.2642 135.73 33.1818ZM181.273 55H165.804V11.3636H181.401C185.79 11.3636 189.569 12.2372 192.736 13.9844C195.904 15.7173 198.34 18.2102 200.044 21.4631C201.763 24.7159 202.623 28.608 202.623 33.1392C202.623 37.6847 201.763 41.5909 200.044 44.858C198.34 48.125 195.89 50.6321 192.694 52.3793C189.512 54.1264 185.705 55 181.273 55ZM175.03 47.0952H180.89C183.617 47.0952 185.911 46.6122 187.772 45.6463C189.647 44.6662 191.053 43.1534 191.99 41.108C192.942 39.0483 193.418 36.392 193.418 33.1392C193.418 29.9148 192.942 27.2798 191.99 25.2344C191.053 23.1889 189.654 21.6832 187.793 20.7173C185.932 19.7514 183.638 19.2685 180.911 19.2685H175.03V47.0952ZM3.79261 128V84.3636H32.6847V91.9702H13.0185V102.368H30.767V109.974H13.0185V128H3.79261ZM134.537 106.182C134.537 110.94 133.635 114.989 131.831 118.327C130.041 121.665 127.598 124.214 124.501 125.976C121.419 127.723 117.953 128.597 114.103 128.597C110.225 128.597 106.745 127.716 103.663 125.955C100.581 124.193 98.1445 121.643 96.3548 118.305C94.565 114.967 93.6701 110.926 93.6701 106.182C93.6701 101.423 94.565 97.375 96.3548 94.0369C98.1445 90.6989 100.581 88.1562 103.663 86.4091C106.745 84.6477 110.225 83.767 114.103 83.767C117.953 83.767 121.419 84.6477 124.501 86.4091C127.598 88.1562 130.041 90.6989 131.831 94.0369C133.635 97.375 134.537 101.423 134.537 106.182ZM125.183 106.182C125.183 103.099 124.721 100.5 123.798 98.3835C122.889 96.267 121.603 94.6619 119.941 93.5682C118.279 92.4744 116.333 91.9276 114.103 91.9276C111.873 91.9276 109.927 92.4744 108.265 93.5682C106.603 94.6619 105.311 96.267 104.387 98.3835C103.478 100.5 103.024 103.099 103.024 106.182C103.024 109.264 103.478 111.864 104.387 113.98C105.311 116.097 106.603 117.702 108.265 118.795C109.927 119.889 111.873 120.436 114.103 120.436C116.333 120.436 118.279 119.889 119.941 118.795C121.603 117.702 122.889 116.097 123.798 113.98C124.721 111.864 125.183 109.264 125.183 106.182ZM170.726 128H155.257V84.3636H170.854C175.243 84.3636 179.022 85.2372 182.189 86.9844C185.357 88.7173 187.793 91.2102 189.498 94.4631C191.216 97.7159 192.076 101.608 192.076 106.139C192.076 110.685 191.216 114.591 189.498 117.858C187.793 121.125 185.343 123.632 182.147 125.379C178.965 127.126 175.158 128 170.726 128ZM164.483 120.095H170.343C173.07 120.095 175.364 119.612 177.225 118.646C179.1 117.666 180.506 116.153 181.444 114.108C182.395 112.048 182.871 109.392 182.871 106.139C182.871 102.915 182.395 100.28 181.444 98.2344C180.506 96.1889 179.107 94.6832 177.246 93.7173C175.385 92.7514 173.091 92.2685 170.364 92.2685H164.483V120.095Z" fill="black"/>
</svg>
